# xmcd CD database file
#
# Track frame offsets:
#	150
#	25337
#	52117
#	75437
#	94922
#	106835
#	126107
#	158745
#	166915
#	188160
#	213810
#
# Disc length: 3049 seconds
#
# Revision: 0
# Processed by: cddbd v1.5PL3 Copyright (c) Steve Scherf et al.
# Submitted via: CDex 1.51
#
DISCID=840be70b
DTITLE=Oren Bloedow - Oren Bloedow
DYEAR=1993
DGENRE=Jazz
TTITLE0=Unbreakable Man
TTITLE1=Sleaziness
TTITLE2=Break This Spell
TTITLE3=Falling Rain
TTITLE4=Little Contact
TTITLE5=There's That Sky
TTITLE6=Big What
TTITLE7=[untitled]
TTITLE8=Nobody Home
TTITLE9=Seesaw
TTITLE10=One Look
EXTD=YEAR: 1993
EXTT0=
EXTT1=
EXTT2=
EXTT3=
EXTT4=
EXTT5=
EXTT6=
EXTT7=
EXTT8=
EXTT9=
EXTT10=
PLAYORDER=
